<svg width="572" height="414" viewBox="0 0 572 414" fill="none" xmlns="http://www.w3.org/2000/svg">
<path d="M539 343V371.5M539 411.5V371.5M539 371.5C539 364.5 555 350.5 572 350.5" stroke="white" stroke-width="15"/>
<path d="M215 376H269C269 364 264.5 346 243.5 346C221 346 215 364.5 215 376ZM215 376C215 409 255.5 411 269 397" stroke="white" stroke-width="15"/>
<path d="M15 322H72L15 404.5H72" stroke="white" stroke-width="15"/>
<circle cx="113.5" cy="325.5" r="11" fill="white" stroke="white"/>
<path d="M114 341V412" stroke="white" stroke-width="15"/>
<path d="M155 311L155 412" stroke="white" stroke-width="15"/>
<path d="M185 311L185 412" stroke="white" stroke-width="15"/>
<path d="M434.5 311L434.5 412" stroke="white" stroke-width="15"/>
<path d="M434 376C434 348.5 381 334 381 376C381 422 434 405 434 376Z" stroke="white" stroke-width="15"/>
<path d="M299 412.5V371M299 344V371M299 371C299 349 349 339 350.5 371V412.5" stroke="white" stroke-width="15"/>
<path d="M509.103 365.556L509.103 412.326" stroke="white" stroke-width="15"/>
<path d="M507.972 389.138C507.972 373.084 465 364.62 465 389.138C465 415.99 507.972 406.066 507.972 389.138Z" stroke="white" stroke-width="15"/>
<path d="M509.103 367.608C509.103 344.633 466.131 344.633 466.131 364.736" stroke="white" stroke-width="15"/>
<path d="M163.501 213C122 234 102.999 165 146.001 161H294.499" stroke="white" stroke-width="15"/>
<path d="M429 106.5C470.501 85.5 485.499 156.968 442.498 160.968L294 160.968" stroke="white" stroke-width="15"/>
<path d="M433 144.819C433 -37 158 -37 158 144.819" stroke="white" stroke-width="15"/>
<path d="M158 174.819C158 356.639 433 356.639 433 174.819" stroke="white" stroke-width="15"/>
<path d="M296 236L296 87" stroke="white" stroke-width="15"/>
<circle cx="296" cy="78" r="16.5" fill="white" stroke="white"/>
<circle cx="296" cy="245" r="16.5" fill="white" stroke="white"/>
<path d="M236 236L236 87" stroke="white" stroke-width="15"/>
<circle cx="236" cy="101" r="16.5" fill="white" stroke="white"/>
<circle cx="236" cy="222" r="16.5" fill="white" stroke="white"/>
<path d="M355 235L355 86" stroke="white" stroke-width="15"/>
<circle cx="355" cy="100" r="16.5" fill="white" stroke="white"/>
<circle cx="355" cy="221" r="16.5" fill="white" stroke="white"/>
</svg>
